<svg width="64" height="64" viewBox="0 0 64 64" fill="none" xmlns="http://www.w3.org/2000/svg">
<g id="bxs:donate-heart">
<path id="Vector" d="M47.2693 34.72L37.3333 42.6667H24V40H34.84C35.0812 39.9999 35.3178 39.9343 35.5247 39.8104C35.7316 39.6864 35.9009 39.5086 36.0148 39.296C36.1286 39.0834 36.1826 38.8439 36.1711 38.603C36.1596 38.3621 36.0829 38.1288 35.9493 37.928L33.5813 34.376C33.0955 33.6448 32.4364 33.0452 31.6626 32.6307C30.8888 32.2161 30.0245 31.9994 29.1467 32H7.99999C7.29275 32 6.61447 32.281 6.11438 32.781C5.61428 33.2811 5.33333 33.9594 5.33333 34.6667V50.6667C5.33333 52.0812 5.89523 53.4377 6.89543 54.4379C7.89562 55.4381 9.25217 56 10.6667 56H36.3707C37.511 56.0003 38.6381 55.7568 39.6766 55.2858C40.7151 54.8148 41.6409 54.1273 42.392 53.2693L58.6667 34.6667L54.7947 33.376C53.5279 32.9537 52.1755 32.8555 50.8609 33.0903C49.5464 33.325 48.3116 33.8853 47.2693 34.72ZM51.3547 19.7067C52.5573 18.4667 53.3013 16.752 53.3013 14.8587C53.3013 12.9653 52.5573 11.2507 51.3547 10.0107C50.7464 9.37594 50.0163 8.87066 49.2079 8.52514C48.3996 8.17963 47.5297 8.001 46.6507 8C46.6507 8 43.3333 7.992 40 11.4293C36.6667 7.992 33.3493 8 33.3493 8C32.4705 8.00112 31.6009 8.17953 30.7927 8.52455C29.9844 8.86958 29.254 9.37413 28.6453 10.008C27.4427 11.2507 26.6987 12.9627 26.6987 14.856C26.6987 16.7493 27.4427 18.4667 28.6453 19.704L40 32L51.3547 19.7067Z" fill="#FDFDFD"/>
</g>
</svg>
